<?xml version="1.0" encoding="UTF-8" standalone="no"?>
<!-- Created with Inkscape (http://www.inkscape.org/) -->

<svg
   width="100"
   height="100"
   viewBox="0 0 26.458333 26.458334"
   version="1.1"
   id="svg5"
   inkscape:version="1.1 (c68e22c387, 2021-05-23)"
   sodipodi:docname="07.svg"
   xmlns:inkscape="http://www.inkscape.org/namespaces/inkscape"
   xmlns:sodipodi="http://sodipodi.sourceforge.net/DTD/sodipodi-0.dtd"
   xmlns="http://www.w3.org/2000/svg"
   xmlns:svg="http://www.w3.org/2000/svg">
  <sodipodi:namedview
     id="namedview7"
     pagecolor="#505050"
     bordercolor="#ffffff"
     borderopacity="1"
     inkscape:pageshadow="0"
     inkscape:pageopacity="0"
     inkscape:pagecheckerboard="1"
     inkscape:document-units="mm"
     showgrid="true"
     units="px"
     inkscape:zoom="3.9910214"
     inkscape:cx="33.700646"
     inkscape:cy="51.490578"
     inkscape:window-width="1366"
     inkscape:window-height="745"
     inkscape:window-x="-8"
     inkscape:window-y="-8"
     inkscape:window-maximized="1"
     inkscape:current-layer="layer1">
    <inkscape:grid
       type="xygrid"
       id="grid846"
       spacingx="2.6458333"
       spacingy="2.6458333" />
  </sodipodi:namedview>
  <defs
     id="defs2" />
  <g
     inkscape:label="Capa 1"
     inkscape:groupmode="layer"
     id="layer1">
    <path
       id="path848"
       style="color:#000000;fill:#ff0000;fill-rule:evenodd;stroke-width:0.383645px;-inkscape-stroke:none"
       d="m 12.868,1.7257731 a 11.509375,11.509375 0 0 0 -7.7770706,3.3651432 11.509375,11.509375 0 0 0 0,16.2764747 11.509375,11.509375 0 0 0 16.2764746,0 11.509375,11.509375 0 0 0 0,-16.2764747 A 11.509375,11.509375 0 0 0 12.868,1.7257731 Z m 0.361167,3.8304638 A 7.6729162,7.6729162 0 0 1 20.902083,13.229153 7.6729162,7.6729162 0 0 1 13.229167,20.90207 7.6729162,7.6729162 0 0 1 5.5562499,13.229153 7.6729162,7.6729162 0 0 1 13.229167,5.5562369 Z" />
  </g>
</svg>
